<svg id="Capa_1" enable-background="new 0 0 512 512" height="512" viewBox="0 0 512 512" width="512" xmlns="http://www.w3.org/2000/svg"><g><path d="m157.201 241h-142.201c-8.284 0-15 6.716-15 15s6.716 15 15 15h142.201c8.284 0 15-6.716 15-15s-6.716-15-15-15z" fill="#d9f2ff"/><path d="m497 241h-242.981c-8.284 0-15 6.716-15 15s6.716 15 15 15h242.981c8.284 0 15-6.716 15-15s-6.716-15-15-15z" fill="#fabe2c"/><path d="m497 322.742h-242.981c-8.284 0-15 6.716-15 15s6.716 15 15 15h242.981c8.284 0 15-6.716 15-15s-6.716-15-15-15z" fill="#f69"/><path d="m497 404.484h-242.981c-8.284 0-15 6.716-15 15l203.229 15h54.752c8.284 0 15-6.716 15-15s-6.716-15-15-15z" fill="#e62e6b"/><path d="m254.019 107.516h242.981c8.284 0 15-6.716 15-15s-6.716-15-15-15h-242.981z" fill="#66c0ee"/><path d="m497 159.258h-242.981c-8.284 0-15 6.716-15 15s6.716 15 15 15h242.981c8.284 0 15-6.716 15-15s-6.716-15-15-15z" fill="#00cc76"/><path d="m455.237 411.984-188.774-326.968c-2.68-4.641-7.632-7.5-12.991-7.5s-10.311 2.859-12.99 7.5l-188.775 326.968c-2.68 4.641-2.68 10.359 0 15 2.679 4.641 7.631 7.5 12.99 7.5h377.55c5.359 0 10.311-2.859 12.99-7.5s2.68-10.359 0-15z" fill="#7ed8f6"/><path d="m266.463 85.016c-2.588-4.482-7.297-7.294-12.444-7.482v356.95h188.228c5.359 0 10.311-2.859 12.99-7.5s2.68-10.359 0-15z" fill="#66c0ee"/></g></svg>